<svg xmlns="http://www.w3.org/2000/svg" width="18.375" height="21" viewBox="0 0 18.375 21">
    <defs>
        <style>.a{fill:currentColor}</style>
    </defs>
    <path class="a" d="M17.883,6.562a.494.494,0,0,0,.492-.492V4.43a.494.494,0,0,0-.492-.492h-.82V1.969A1.969,1.969,0,0,0,15.094,0H1.969A1.969,1.969,0,0,0,0,1.969V19.031A1.969,1.969,0,0,0,1.969,21H15.094a1.969,1.969,0,0,0,1.969-1.969V17.063h.82a.494.494,0,0,0,.492-.492V14.93a.494.494,0,0,0-.492-.492h-.82V11.812h.82a.494.494,0,0,0,.492-.492V9.68a.494.494,0,0,0-.492-.492h-.82V6.562ZM8.531,5.25A2.625,2.625,0,1,1,5.906,7.875,2.627,2.627,0,0,1,8.531,5.25Zm4.594,9.712a.86.86,0,0,1-.919.787H4.856a.86.86,0,0,1-.919-.787v-.788a2.583,2.583,0,0,1,2.756-2.363H6.9a4.225,4.225,0,0,0,3.265,0h.205a2.583,2.583,0,0,1,2.756,2.363Z"/>
</svg>