<svg xmlns="http://www.w3.org/2000/svg" width="91" height="91" viewBox="0 0 91 91"><defs><style>.a{fill:#58eaef;}.b,.d{fill:none;}.b{stroke:#58eaef;stroke-width:2px;}.c{stroke:none;}</style></defs><g transform="translate(-121 -95)"><path class="a" d="M6.4,7.4V1h4.27V7.4h6.4v4.27h-6.4v6.4H6.4v-6.4H0V7.4Zm6.4,12.81v-6.4h6.4V7.4H34.16l3.907,4.27h6.768a4.283,4.283,0,0,1,4.27,4.27v25.62a4.283,4.283,0,0,1-4.27,4.27H10.675a4.283,4.283,0,0,1-4.27-4.27V20.215ZM27.755,39.43A10.675,10.675,0,1,0,17.08,28.755,10.679,10.679,0,0,0,27.755,39.43ZM20.923,28.755a6.832,6.832,0,1,0,6.832-6.832,6.825,6.825,0,0,0-6.832,6.832Z" transform="translate(140 116.165)"/><g class="b" transform="translate(121 95)"><circle class="c" cx="45.5" cy="45.5" r="45.5"/><circle class="d" cx="45.5" cy="45.5" r="44.5"/></g></g></svg>