<svg id="language-svgrepo-com" xmlns="http://www.w3.org/2000/svg" width="48" height="48" viewBox="0 0 48 48">
    <path id="Path_51" data-name="Path 51" d="M39.074,3H17.889V9.62h2.648V5.648H39.074A1.251,1.251,0,0,1,40.4,6.972V21.537a1.251,1.251,0,0,1-1.324,1.324H21.861V32.13H14.844l-4.9,3.84V32.13H5.972a1.251,1.251,0,0,1-1.324-1.324V16.241a1.251,1.251,0,0,1,1.324-1.324H23.185V12.269H5.972A3.9,3.9,0,0,0,2,16.241V30.806a3.9,3.9,0,0,0,3.972,3.972H7.3v6.753l8.342-6.753h8.871V25.509H39.074a3.9,3.9,0,0,0,3.972-3.972V6.972A3.9,3.9,0,0,0,39.074,3Z" transform="translate(0.648 0.972)"/>
    <path id="Path_52" data-name="Path 52" d="M6.2,25.784H9.378l.794-2.119h4.1l.794,2.119h3.178L13.747,14H10.569Zm5.958-8.474,1.324,4.1H10.834Z" transform="translate(2.009 4.537)"/>
    <path id="Path_53" data-name="Path 53" d="M20,20.565a12.44,12.44,0,0,0,5.3-1.324,12.9,12.9,0,0,0,5.3,1.324V17.917a9.073,9.073,0,0,1-2.781-.53,10.064,10.064,0,0,0,2.781-7.415V8.648H26.62V6H23.972V8.648H20V11.3h7.812A6.655,6.655,0,0,1,25.3,16.063a7.738,7.738,0,0,1-2.119-2.781H20.4a9.627,9.627,0,0,0,2.383,4.1,7.608,7.608,0,0,1-2.781.53Z" transform="translate(6.481 1.944)"/>
    <rect id="Rectangle_61" data-name="Rectangle 61" width="48" height="48" fill="rgba(0,0,0,0)"/>
</svg>