<svg xmlns="http://www.w3.org/2000/svg" width="12.333" height="12.333" viewBox="0 0 12.333 12.333">
    <defs>
        <style>.a{fill:currentColor;}</style>
    </defs>
    <path class="a" d="M7.667,5.424A2.242,2.242,0,1,0,9.909,7.667,2.242,2.242,0,0,0,7.667,5.424Zm5.012,1.682A5.042,5.042,0,0,0,8.227,2.655V1.5H7.106V2.655A5.042,5.042,0,0,0,2.655,7.106H1.5V8.227H2.655a5.042,5.042,0,0,0,4.451,4.451v1.155H8.227V12.679a5.042,5.042,0,0,0,4.451-4.451h1.155V7.106ZM7.667,11.591a3.924,3.924,0,1,1,3.924-3.924A3.921,3.921,0,0,1,7.667,11.591Z" transform="translate(-1.5 -1.5)"/>
</svg>