<svg xmlns="http://www.w3.org/2000/svg" width="21.951" height="21.951" viewBox="0 0 21.951 21.951">
    <defs>
        <style>.a{fill:currentColor;}</style>
    </defs>
    <g transform="translate(0 -0.002)">
        <g transform="translate(0 0.002)">
            <path class="a" d="M21.951,11.681,20.162,9.647l1.086-2.2L19.063,6.37l.171-2.655L16.523,3.54,15.7,1.117l-2.345.794L11.679,0,9.7,1.744,7.3.561,6.159,2.877,3.713,2.721,3.552,5.234l-2.58.873L1.837,8.66,0,10.274,1.6,12.1.416,14.507,2.88,15.724l-.162,2.518,2.416.155.828,2.441,2.566-.869,1.745,1.984L12.15,20.3l2.212,1.092,1.152-2.334,2.727.176.167-2.614,2.286-.774-.8-2.358Zm-4.2,4.436L17.594,18.5l-2.5-.16-1.05,2.127-2.007-.991-1.705,1.5L8.743,19.166l-2.348.8L5.64,17.736,3.452,17.6,3.6,15.308,1.341,14.193l1.088-2.2L.975,10.338,2.639,8.875,1.848,6.54l2.364-.8.146-2.286L6.576,3.6,7.617,1.486,9.807,2.568,11.617.977l1.527,1.736,2.127-.721L16.019,4.2l2.482.159-.155,2.426,1.979.978-.985,1.993,1.638,1.863-1.885,1.657.725,2.139Z" transform="translate(0 -0.002)"/>
            <g transform="translate(11.653 10.179)">
                <path class="a" d="M105.823,90.8c-1.029,0-1.879.873-1.879,2.442s.85,2.334,1.82,2.334c.994,0,1.856-.814,1.856-2.455C107.62,91.635,106.913,90.8,105.823,90.8Zm-.036,4.142c-.646,0-1.03-.754-1.017-1.747s.359-1.76,1.018-1.76c.73,0,1.005.79,1.005,1.736C106.793,94.2,106.482,94.939,105.788,94.939Z" transform="translate(-103.944 -90.797)"/>
            </g>
            <g transform="translate(6.578 6.958)">
                <path class="a" d="M62.359,64.392c0-1.484-.718-2.323-1.808-2.323-1.03,0-1.879.875-1.879,2.431s.85,2.346,1.82,2.346C61.5,66.846,62.359,66.032,62.359,64.392Zm-2.849.072c0-.982.348-1.76,1.006-1.76.73,0,1.006.79,1.006,1.736,0,1.029-.311,1.771-1.006,1.771C59.858,66.211,59.486,65.457,59.51,64.464Z" transform="translate(-58.672 -62.069)"/>
            </g>
            <g transform="translate(8.325 6.958)">
                <path class="a" d="M78.831,62.07l-4.573,8.045h.67L79.5,62.07Z" transform="translate(-74.258 -62.07)"/>
            </g>
        </g>
    </g>
</svg>