<svg xmlns="http://www.w3.org/2000/svg" width="29.83" height="29.884" viewBox="0 0 29.83 29.884"><defs><style>.a{fill:none;stroke:#000;stroke-linecap:round;stroke-linejoin:round;stroke-width:1.5px;}</style></defs><path class="a" d="M19.082,6.16A6.762,6.762,0,0,1,24.424,11.5M19.082.75A12.172,12.172,0,0,1,29.834,11.488M28.481,22.281v4.057a2.7,2.7,0,0,1-2.948,2.7,26.765,26.765,0,0,1-11.672-4.152,26.372,26.372,0,0,1-8.115-8.115A26.765,26.765,0,0,1,1.595,5.051,2.7,2.7,0,0,1,4.286,2.1H8.344a2.7,2.7,0,0,1,2.7,2.326A17.365,17.365,0,0,0,12,8.229a2.7,2.7,0,0,1-.609,2.854L9.669,12.8a21.639,21.639,0,0,0,8.115,8.115L19.5,19.2a2.7,2.7,0,0,1,2.854-.609,17.365,17.365,0,0,0,3.8.947A2.7,2.7,0,0,1,28.481,22.281Z" transform="translate(-0.833 0.078)"/></svg>