<svg xmlns="http://www.w3.org/2000/svg" width="27" height="27" viewBox="0 0 27 27">
    <defs>
        <style>.a{}.b{fill:none;stroke:currentColor;stroke-linecap:round;stroke-linejoin:round;stroke-width:2px;}</style>
    </defs>
    <g class="a" transform="translate(-0.667 -0.667)">
        <path class="b" d="M21.818,18.409A3.409,3.409,0,1,1,18.409,15,3.409,3.409,0,0,1,21.818,18.409Z" transform="translate(-4.242 -4.242)"/>
        <path class="b" d="M22.576,17.576a1.875,1.875,0,0,0,.375,2.068l.068.068A2.274,2.274,0,1,1,19.8,22.928l-.068-.068a1.89,1.89,0,0,0-3.2,1.341v.193a2.273,2.273,0,1,1-4.545,0v-.1a1.875,1.875,0,0,0-1.227-1.716,1.875,1.875,0,0,0-2.068.375l-.068.068A2.274,2.274,0,1,1,5.405,19.8l.068-.068a1.89,1.89,0,0,0-1.341-3.2H3.939a2.273,2.273,0,1,1,0-4.545h.1a1.875,1.875,0,0,0,1.716-1.227,1.875,1.875,0,0,0-.375-2.068l-.068-.068A2.274,2.274,0,1,1,8.53,5.405l.068.068a1.875,1.875,0,0,0,2.068.375h.091a1.875,1.875,0,0,0,1.136-1.716V3.939a2.273,2.273,0,0,1,4.545,0v.1a1.89,1.89,0,0,0,3.2,1.341l.068-.068A2.274,2.274,0,1,1,22.928,8.53L22.86,8.6a1.875,1.875,0,0,0-.375,2.068v.091A1.875,1.875,0,0,0,24.2,11.894h.193a2.273,2.273,0,1,1,0,4.545h-.1a1.875,1.875,0,0,0-1.716,1.136Z" transform="translate(0 0)"/>
    </g>
</svg>