<svg xmlns="http://www.w3.org/2000/svg" width="32.948" height="59.255" viewBox="0 0 32.948 59.255">
   <defs>
        <style>.b{fill:none;stroke:currentColor;stroke-linecap:round;stroke-linejoin:round;stroke-width:1px;}</style>
    </defs>
  <g id="sms-bubbles-symbol-on-phone-screen-svgrepo-com" transform="translate(-120)" class="b">  
    <g id="Group_79" data-name="Group 79" transform="translate(120)">
      <path id="Path_40" data-name="Path 40" d="M152.948,55.233V4.021A4.026,4.026,0,0,0,148.927,0H124.021A4.026,4.026,0,0,0,120,4.021V55.234a4.026,4.026,0,0,0,4.021,4.022h24.907A4.026,4.026,0,0,0,152.948,55.233Zm-1.572,0a2.451,2.451,0,0,1-2.449,2.45H124.021a2.452,2.452,0,0,1-2.449-2.45V4.021a2.453,2.453,0,0,1,2.449-2.449h24.907a2.451,2.451,0,0,1,2.449,2.449V55.233Z" transform="translate(-120)"/>
      <path id="Path_41" data-name="Path 41" d="M174.843,59.651H148.937a.393.393,0,0,0-.393.393V105a.393.393,0,0,0,.393.393h25.906a.393.393,0,0,0,.393-.393V60.044A.393.393,0,0,0,174.843,59.651Zm-1.441,44.96H150.378a1.048,1.048,0,0,1-1.048-1.048V61.485a1.048,1.048,0,0,1,1.048-1.048H173.4a1.049,1.049,0,0,1,1.048,1.048v42.078A1.049,1.049,0,0,1,173.4,104.611Z" transform="translate(-145.415 -53.112)"/>
      <path id="Path_42" data-name="Path 42" d="M246.934,31.424h4.422a.393.393,0,0,0,0-.786h-4.422a.393.393,0,1,0,0,.786Z" transform="translate(-232.67 -27.28)"/>
      <path id="Path_43" data-name="Path 43" d="M240.467,485.191h-4.528a1.689,1.689,0,0,0-1.687,1.686v.27a1.689,1.689,0,0,0,1.687,1.687h4.528a1.689,1.689,0,0,0,1.686-1.687v-.27A1.688,1.688,0,0,0,240.467,485.191Zm.9,1.956a.9.9,0,0,1-.9.9H235.94a.9.9,0,0,1-.9-.9v-.27a.9.9,0,0,1,.9-.9h4.528a.9.9,0,0,1,.9.9Z" transform="translate(-221.729 -432.008)"/>
    </g>
    <path id="paper-plane-svgrepo-com" d="M15.94,7.633a.264.264,0,0,0-.238-.094.255.255,0,0,0-.06.01L.2,11.75a.266.266,0,0,0-.013.51l5.652,1.852-.506,4.044a.266.266,0,0,0,.426.245l2.068-1.584,1.813,2.591a.266.266,0,0,0,.218.114h.018a.266.266,0,0,0,.219-.144L15.97,7.922A.264.264,0,0,0,15.94,7.633Zm-1.85.891-8,5.111-4.9-1.6ZM5.937,17.591l.368-2.944L7.518,16.38ZM9.821,18.74,6.5,14l8.551-5.463Z" transform="translate(128 16.576)"/>
  </g>
</svg>
