<svg xmlns="http://www.w3.org/2000/svg" width="32.948" height="59.255" viewBox="0 0 32.948 59.255">
    <defs>
        <style>.b{fill:none;stroke:currentColor;stroke-linecap:round;stroke-linejoin:round;stroke-width:1px;}</style>
    </defs>
    <g id="sms-bubbles-symbol-on-phone-screen-svgrepo-com" transform="translate(-120)">
        <g id="Group_79" data-name="Group 79" transform="translate(120)" class="b">
            <path id="Path_40" data-name="Path 40" d="M152.948,55.233V4.021A4.026,4.026,0,0,0,148.927,0H124.021A4.026,4.026,0,0,0,120,4.021V55.234a4.026,4.026,0,0,0,4.021,4.022h24.907A4.026,4.026,0,0,0,152.948,55.233Zm-1.572,0a2.451,2.451,0,0,1-2.449,2.45H124.021a2.452,2.452,0,0,1-2.449-2.45V4.021a2.453,2.453,0,0,1,2.449-2.449h24.907a2.451,2.451,0,0,1,2.449,2.449V55.233Z" transform="translate(-120)"/>
            <path id="Path_41" data-name="Path 41" d="M174.843,59.651H148.937a.393.393,0,0,0-.393.393V105a.393.393,0,0,0,.393.393h25.906a.393.393,0,0,0,.393-.393V60.044A.393.393,0,0,0,174.843,59.651Zm-1.441,44.96H150.378a1.048,1.048,0,0,1-1.048-1.048V61.485a1.048,1.048,0,0,1,1.048-1.048H173.4a1.049,1.049,0,0,1,1.048,1.048v42.078A1.049,1.049,0,0,1,173.4,104.611Z" transform="translate(-145.415 -53.112)"/>
            <path id="Path_42" data-name="Path 42" d="M246.934,31.424h4.422a.393.393,0,0,0,0-.786h-4.422a.393.393,0,1,0,0,.786Z" transform="translate(-232.67 -27.28)"/>
            <path id="Path_43" data-name="Path 43" d="M240.467,485.191h-4.528a1.689,1.689,0,0,0-1.687,1.686v.27a1.689,1.689,0,0,0,1.687,1.687h4.528a1.689,1.689,0,0,0,1.686-1.687v-.27A1.688,1.688,0,0,0,240.467,485.191Zm.9,1.956a.9.9,0,0,1-.9.9H235.94a.9.9,0,0,1-.9-.9v-.27a.9.9,0,0,1,.9-.9h4.528a.9.9,0,0,1,.9.9Z" transform="translate(-221.729 -432.008)"/>
            <path id="Path_44" data-name="Path 44" d="M177.9,236.062a4.818,4.818,0,0,1-.655,1.117.428.428,0,0,0-.042.3.441.441,0,0,0,.471.33,7.626,7.626,0,0,0,3.657-1.463c.441-.375.82-.808,1-.827s.575.364.991.767a6.866,6.866,0,0,0,3.5,1.706,4.742,4.742,0,0,1,1.734.913,6.878,6.878,0,0,0,3.132,1.21.436.436,0,0,0,.46-.329.414.414,0,0,0-.038-.291,4.574,4.574,0,0,1-.571-.969c-.15-.445.212-.96.727-1.223a4.563,4.563,0,0,0,2.772-3.907c0-2.624-2.915-4.761-6.5-4.761l-.1,0a6.95,6.95,0,0,1-.509-.811,4.894,4.894,0,0,0-.567-.716,8.525,8.525,0,0,0-6.111-2.274c-4.051,0-7.35,2.41-7.35,5.372a5.2,5.2,0,0,0,3.3,4.486A1.182,1.182,0,0,1,177.9,236.062Zm10.773-6.258c-.018-.2.424-.358,1-.277,2.593.365,4.55,1.96,4.55,3.867,0,1.6-1.379,3.031-3.517,3.647a.406.406,0,0,0-.284.482c.068.3.137.57.208.815.128.447-.191.679-.716.438a2.671,2.671,0,0,1-1.414-1.193.405.405,0,0,0-.356-.256,6.961,6.961,0,0,1-3.825-1.246c-.462-.348-.292-.823.252-1.02,2.479-.9,4.122-2.794,4.122-4.9C188.684,230.043,188.679,229.924,188.669,229.8Zm-1.893-2.134a3.377,3.377,0,0,1,1.012,2.515c-.116,2.437-2.727,4.4-6.072,4.563a.411.411,0,0,0-.359.255,3.385,3.385,0,0,1-1.889,1.494c-.535.222-.816-.08-.661-.617q.127-.44.252-.98a.406.406,0,0,0-.284-.483c-2.463-.71-4.051-2.363-4.051-4.212,0-2.512,2.93-4.556,6.532-4.556A7.714,7.714,0,0,1,186.776,227.67Z" transform="translate(-167.994 -200.189)"/>
        </g>
    </g>
</svg>