<svg xmlns="http://www.w3.org/2000/svg" width="22.23" height="22.23" viewBox="0 0 22.23 22.23"><defs><style>.a{fill:currentColor;opacity:0.6;}</style></defs><g class="a"><path d="M20.841,10.427v-.7a9.726,9.726,0,0,0-19.451,0v.7a3.469,3.469,0,0,0,2.084,6.246h.695V9.726H3.473a3.45,3.45,0,0,0-1.158.2v-.2a8.8,8.8,0,0,1,17.6,0v.2a3.45,3.45,0,0,0-1.158-.2h-.695v6.947h.695a3.475,3.475,0,0,0,.695-.07v2.849a.927.927,0,0,1-.926.926h-5.18a1.387,1.387,0,0,0-1.3-.926H10.652a1.389,1.389,0,0,0,0,2.779h1.389a1.387,1.387,0,0,0,1.3-.926h5.18a1.855,1.855,0,0,0,1.853-1.853V16.269a3.465,3.465,0,0,0,.463-5.842Zm-17.6.235v5.074a2.547,2.547,0,0,1,0-5.074Zm8.8,10.642H10.652a.463.463,0,1,1,0-.926h1.389a.463.463,0,0,1,0,.926Zm6.947-5.568V10.662a2.547,2.547,0,0,1,0,5.074Z"/><g transform="translate(5.094 2.779)"><path d="M124.681,68.578V66.343l-1.4-.234a4.751,4.751,0,0,0-.4-.957l.828-1.159-1.58-1.58-1.159.828a4.765,4.765,0,0,0-.957-.4l-.234-1.4h-2.234l-.234,1.4a4.765,4.765,0,0,0-.957.4l-1.159-.828-1.58,1.58.828,1.159a4.765,4.765,0,0,0-.4.957l-1.4.234v2.235l1.4.234a4.77,4.77,0,0,0,.4.957l-.828,1.159,1.58,1.58,1.159-.828a4.772,4.772,0,0,0,.957.4l.234,1.4h2.234l.234-1.4a4.773,4.773,0,0,0,.957-.4l1.159.828,1.58-1.58-.828-1.159a4.762,4.762,0,0,0,.4-.957ZM122.52,68l-.068.306a3.839,3.839,0,0,1-.515,1.239l-.168.264.729,1.021-.47.47-1.02-.729-.264.168a3.849,3.849,0,0,1-1.24.515l-.305.068-.206,1.235h-.665l-.206-1.235-.305-.068a3.849,3.849,0,0,1-1.24-.515l-.264-.168-1.02.729-.47-.47.729-1.021-.168-.264a3.845,3.845,0,0,1-.515-1.239L114.8,68l-1.235-.206v-.665l1.235-.206.068-.305a3.846,3.846,0,0,1,.515-1.239l.168-.264-.729-1.021.47-.47,1.02.729.264-.168a3.849,3.849,0,0,1,1.24-.515l.305-.068.206-1.235h.665L119.2,63.6l.305.068a3.849,3.849,0,0,1,1.24.515l.264.168,1.02-.729.47.47-.729,1.021.168.264a3.838,3.838,0,0,1,.515,1.239l.068.306,1.235.206v.665Z" transform="translate(-112.64 -61.44)"/></g><g transform="translate(8.477 6.162)"><path d="M190.078,136.235a2.638,2.638,0,1,0,2.638,2.638A2.641,2.641,0,0,0,190.078,136.235Zm0,4.35a1.712,1.712,0,1,1,1.712-1.712A1.713,1.713,0,0,1,190.078,140.585Z" transform="translate(-187.44 -136.235)"/></g></g></svg>