<svg xmlns="http://www.w3.org/2000/svg" width="12.122" height="12.122" viewBox="0 0 12.122 12.122"><defs><style>.a{opacity:0.29;}.b{fill:#505050;}</style></defs><g transform="translate(-41.606 -252.606)"><path class="a" d="M3.628,8.123l4.5-4.5a.994.994,0,0,1,.705-.29h3.5a1,1,0,0,1,1,1v3.5a1,1,0,0,1-.3.71l-4.5,4.5a.994.994,0,0,1-.705.29.978.978,0,0,1-.7-.295l-3.5-3.5a.978.978,0,0,1-.295-.7A1.01,1.01,0,0,1,3.628,8.123Zm7.955-2.29a.75.75,0,1,0-.75-.75A.749.749,0,0,0,11.583,5.833Z" transform="translate(37.565 252.597) rotate(-14)"/><path class="b" d="M3.628,8.123l4.5-4.5a.994.994,0,0,1,.705-.29h3.5a1,1,0,0,1,1,1v3.5a1,1,0,0,1-.3.71l-4.5,4.5a.994.994,0,0,1-.705.29.978.978,0,0,1-.7-.295l-3.5-3.5a.978.978,0,0,1-.295-.7A1.01,1.01,0,0,1,3.628,8.123Zm7.955-2.29a.75.75,0,1,0-.75-.75A.749.749,0,0,0,11.583,5.833Z" transform="translate(38.333 249.333)"/></g></svg>